<svg width="35px" height="40px" viewBox="0 0 56 61" version="1.1" xmlns="http://www.w3.org/2000/svg" xmlns:xlink="http://www.w3.org/1999/xlink">
    <g id="Page-1" stroke="none" stroke-width="1" fill="none" fill-rule="evenodd">
        <g id="Extra-Large" transform="translate(-933.000000, -212.000000)" fill="#343434" fill-rule="nonzero">
            <g id="Asset-2" transform="translate(933.000000, 212.000000)">
                <path d="M51.0392646,12.298847 L31.5930196,1.08351511 C30.3384232,0.361171705 28.9507635,0 27.5440947,0 C26.137426,0 24.7497663,0.361171705 23.4951698,1.08351511 L4.0489249,12.298847 C1.55874104,13.7435338 0,16.423808 0,19.2941726 L0,41.7058274 C0,44.576192 1.55874104,47.2564662 4.0489249,48.701153 L23.4951698,59.9164849 C24.7497663,60.6388283 26.137426,61 27.5440947,61 C28.9507635,61 30.3384232,60.6388283 31.5930196,59.9164849 L51.0392646,48.701153 C53.5294484,47.2564662 55.0881895,44.576192 55.0881895,41.7058274 L55.0881895,19.2941726 C55.0881895,16.423808 53.5294484,13.7435338 51.0392646,12.298847 Z M48.5870988,41.7058274 C48.5870988,42.2760985 48.2829542,42.7893425 47.7887192,43.074478 L28.3424743,54.2898099 C28.0953568,54.4228732 27.8292303,54.4989093 27.5440947,54.4989093 C27.2589592,54.4989093 26.9928327,54.4228732 26.7457152,54.2898099 L7.29947024,43.074478 C6.80523528,42.7893425 6.50109068,42.2570894 6.50109068,41.7058274 L6.50109068,19.2941726 C6.50109068,18.7239015 6.80523528,18.2106575 7.29947024,17.925522 L26.7457152,6.71019009 C26.9928327,6.57712683 27.2589592,6.50109068 27.5440947,6.50109068 C27.8292303,6.50109068 28.0953568,6.57712683 28.3424743,6.71019009 L47.7887192,17.925522 C48.2829542,18.2106575 48.5870988,18.7429106 48.5870988,19.2941726 L48.5870988,41.7058274 Z" id="Shape"></path>
                <path d="M27.5440947,58.7569336 C27.0308507,58.7569336 26.5936429,58.4717981 26.5936429,58.1296354 L26.5936429,39.0255531 C26.5936429,38.6833905 27.0118417,38.3982549 27.5440947,38.3982549 C28.0763478,38.3982549 28.4945466,38.6833905 28.4945466,39.0255531 L28.4945466,58.1296354 C28.4945466,58.4717981 28.0763478,58.7569336 27.5440947,58.7569336 Z" id="Path"></path>
                <path d="M20.2256155,38.2651916 C22.6017451,39.3296977 25.0919289,39.7669056 27.5440947,39.6338423 C27.9622935,33.2087878 24.4456217,26.9167965 18.2296666,24.1224681 C15.8535369,23.057962 13.3633531,22.6207541 10.9111873,22.7538174 C10.4929885,29.1788719 14.0096603,35.4708632 20.2256155,38.2651916 Z" id="Path"></path>
                <path d="M34.862574,38.2651916 C32.4864444,39.3296977 29.9962605,39.7669056 27.5440947,39.6338423 C27.1258959,33.2087878 30.6425678,26.9167965 36.8585229,24.1224681 C39.2346525,23.057962 41.7248364,22.6207541 44.1770022,22.7538174 C44.595201,29.1788719 41.0785291,35.4708632 34.862574,38.2651916 Z" id="Path"></path>
            </g>
        </g>
    </g>
</svg>